<?xml version="1.0" standalone="no"?>
<!DOCTYPE svg PUBLIC "-//W3C//DTD SVG 20010904//EN"
 "http://www.w3.org/TR/2001/REC-SVG-20010904/DTD/svg10.dtd">
<svg version="1.0" xmlns="http://www.w3.org/2000/svg"
 width="814.000000pt" height="814.000000pt" viewBox="0 0 814.000000 814.000000"
 preserveAspectRatio="xMidYMid meet">
<metadata>
Created by potrace 1.11, written by Peter Selinger 2001-2013
</metadata>
<g transform="translate(0.000000,814.000000) scale(0.100000,-0.100000)"
fill="#000000" stroke="none">
<path d="M560 4115 l0 -1355 540 0 540 0 0 540 0 540 545 0 545 0 0 275 0 275
-545 0 -545 0 0 270 0 270 545 0 545 0 0 270 0 270 -1085 0 -1085 0 0 -1355z"/>
<path d="M3270 4115 l0 -1355 540 0 540 0 0 1355 0 1355 -540 0 -540 0 0
-1355z"/>
<path d="M4890 4115 l0 -1355 1106 0 1106 0 87 26 c47 15 100 37 118 50 17 13
35 24 40 24 15 0 89 65 143 126 74 83 104 135 137 235 25 76 28 97 27 219 0
116 -4 145 -26 211 -28 85 -82 178 -143 247 -48 55 -167 144 -215 162 -19 7
-64 23 -100 36 -47 16 -57 23 -38 23 38 1 130 37 198 78 135 80 246 220 301
379 21 60 24 88 24 204 0 154 -16 217 -88 349 -41 75 -171 214 -212 227 -11 4
-32 16 -46 28 -14 12 -45 28 -70 35 -24 7 -64 21 -89 30 -40 14 -160 16 -1152
19 l-1108 3 0 -1356z m1630 545 l0 -270 -270 0 -270 0 0 270 0 270 270 0 270
0 0 -270z m0 -1090 l0 -270 -270 0 -270 0 0 270 0 270 270 0 270 0 0 -270z"/>
</g>
</svg>
